<?xml version="1.0" encoding="utf-8"?>
<svg xmlns="http://www.w3.org/2000/svg" viewBox="0 0 280 170" xmlns:bx="https://boxy-svg.com">
  <line x1="20" y1="0" x2="20" y2="170" stroke="#999" stroke-width="1" style="stroke-width: 1px;"/>
  <line x1="0.583" y1="150.118" x2="280" y2="150.118" stroke="#999" stroke-width="1" style="stroke-width: 1px;"/>
  <rect x="20" width="240" height="60" fill="#ccc" opacity="0.7" style="stroke-width: 1px;" y="230"/>
  <defs>
    <bx:grid x="0" y="0" width="10" height="10" divisions="1"/>
  </defs>
  <path d="M 20 93.728 C 26.053 65.696 38.158 40 53.289 40 C 68.421 40 80.526 65.696 95.658 84.384 C 110.789 103.072 122.895 114.752 138.026 114.752 C 153.158 114.752 165.263 103.072 180.395 84.384 C 195.526 65.696 207.632 54.016 222.763 65.696 C 237.895 77.376 243.947 98.4 250 112.416" fill="none" stroke="black" stroke-width="1.5" style="stroke-width: 1.5px;"/>
  <polygon style="fill: rgba(204, 204, 204, 0.7); stroke: none;" points="20 40 100 40 100 50 160 50 160 60 260 60 260 10 20 10"/>
  <polyline style="fill: none; stroke: rgb(0, 0, 0);" points="20 40 100 40 100 50 160 50 160 60 260 60"/>
</svg>